<?xml version="1.0" encoding="UTF-8"?>
<svg id="Layer_2" data-name="Layer 2" xmlns="http://www.w3.org/2000/svg" viewBox="0 0 723.45 364.81">
  <defs>
    <style>
      .cls-1 {
        fill: #edd8c5;
      }

      .cls-2 {
        fill: #f05555;
      }
    </style>
  </defs>
  <g id="Layer_1-2" data-name="Layer 1">
    <path class="cls-1" d="M295.03,216.01h-56.23c.09-.12,7.3-6.24,12.16-12.22,2.52-3.1,4.2-4.49,9.43-12.67,4.42-6.91,5.85-10.25,7.63-13.94,40.03-.02,80.05-.04,120.08-.07v38.9h-48.52l.05,148.79h-44.55l-.05-148.79Z"/>
    <path class="cls-1" d="M258.97,251.02h-31.21s-33.41,90.49-33.2,89.39l-74.62.17v-89.56h-25.68v113.78h118.72l7.88-22.76h44.7l7.88,22.76h21.64l-36.11-113.78ZM227.44,319.78l15.85-42.67,15.77,42.67h-31.61Z"/>
    <path class="cls-1" d="M339.45,307.84c0-31.44,25.53-56.81,56.97-56.81s56.97,25.37,56.97,56.81-25.53,56.97-56.97,56.97-56.97-25.37-56.97-56.97ZM428.33,307.84c0-18.52-14.01-33-31.91-33s-31.91,14.48-31.91,33,14.01,33.15,31.91,33.15,31.91-14.63,31.91-33.15Z"/>
    <path class="cls-2" d="M0,0h144.8c80.33,0,134.41,52.04,134.41,123.96s-54.09,124.3-139.71,127.06h-56.02v113.78s-83.49,0-83.49,0V0ZM142.69,177.18c33.29,0,55.5-19.79,55.5-47.93,0-31.27-22.2-55.76-55.49-55.76h-59.19v103.7s59.19,0,59.19,0Z"/>
    <path class="cls-2" d="M279.22,25.77h96.93v30.7h-63.21v27.89h56v31.56h-56v30.05h63.21v31.13h-96.93V25.77Z"/>
    <path class="cls-2" d="M434.53,102.09c13.62,0,22.7-11.03,22.7-22.7,0-12.97-9.08-23.13-22.7-23.13h-24.21v45.83h24.21ZM376.15,25.77h59.24c32.86,0,56.43,21.62,56.43,51.46s-23.57,55.14-58.6,55.14h-22.91v44.75h-34.16"/>
    <path class="cls-1" d="M679.93,294.46c19.82-12.05,33.62-32.68,33.62-55.18,0-35.62-29.2-62.41-70.49-62.55l-30.15.2h-43.07l-.34,59.59.23,42.73c.47,35.59-18.45,46.66-38.74,46.84-19.24.17-38.47-11.25-38.47-46.84v-102.32h-41.35v104.68c0,59.4,33.37,82.95,79.82,82.95,14.44,0,27.95-3.19,39.21-8.05l.04,7.86h41.78v-60.53h25.04l36.29,60.53h50.09l-43.52-69.91ZM643.15,270.09h-30.64v-52.82h30.64c16.64,0,27.73,12.15,27.73,26.41s-11.09,26.41-27.73,26.41Z"/>
    <path class="cls-2" d="M490.13,24.93h34.37l-.23,152.01h-34.15V24.93Z"/>
    <path class="cls-2" d="M680.93,26.17v95.09l-63.82-96.55h-78.21v32.36h43.97v60.45c0,21.49-7.4,28.52-24.31,28.52-8.87,0-19.02-2.34-25.78-7.03v30.23c6.55,4.69,19.23,7.88,31.92,7.88,28.11,0,51.57-15.33,51.57-56.4v-38.48l64.67,94.88h32.78V26.17h-32.78Z"/>
  </g>
</svg>